<svg width="45" height="45" viewBox="0 0 45 45" fill="none" xmlns="http://www.w3.org/2000/svg">
<circle cx="22.5" cy="22.5" r="22.5" fill="#4A4A4A"/>
<path d="M32.1102 20.632C32.5813 20.6321 33.0355 20.7835 33.3842 21.0568C33.7329 21.3302 33.9512 21.7058 33.9964 22.1105L34.0052 22.2675V26.6286C34.0052 27.8899 33.4424 29.1026 32.4337 30.0152C31.425 30.9278 30.0477 31.4701 28.588 31.5295L28.3201 31.535H11.8965C11.5376 31.5352 11.1861 31.4475 10.8827 31.282C10.5793 31.1166 10.3366 30.8802 10.1828 30.6004C10.029 30.3205 9.97048 30.0087 10.014 29.7013C10.0575 29.3939 10.2012 29.1034 10.4285 28.8637L10.5561 28.7438L14.3462 25.4729C14.6893 25.1752 15.152 25.0027 15.6385 24.9913C16.1249 24.9799 16.5978 25.1305 16.9591 25.4118C17.3205 25.6931 17.5426 26.0835 17.5795 26.5023C17.6163 26.921 17.4651 27.336 17.1571 27.6612L17.027 27.7854L16.4711 28.2641H28.3201C28.7912 28.2641 29.2454 28.1126 29.5941 27.8393C29.9428 27.566 30.1611 27.1903 30.2063 26.7856L30.2152 26.6286V22.2675C30.2152 21.8337 30.4148 21.4178 30.7702 21.1111C31.1256 20.8043 31.6076 20.632 32.1102 20.632ZM32.1102 13C32.4691 12.9998 32.8206 13.0875 33.124 13.2529C33.4274 13.4184 33.6701 13.6548 33.8239 13.9346C33.9777 14.2144 34.0362 14.5262 33.9927 14.8336C33.9492 15.1411 33.8055 15.4315 33.5782 15.6712L33.4506 15.7911L29.6605 19.062C29.3174 19.3598 28.8547 19.5323 28.3682 19.5436C27.8818 19.555 27.4089 19.4045 27.0476 19.1232C26.6862 18.8419 26.4641 18.4514 26.4273 18.0327C26.3904 17.6139 26.5416 17.199 26.8496 16.8738L26.9797 16.7495L27.5356 16.2709H15.6866C15.2155 16.2709 14.7613 16.4223 14.4126 16.6957C14.0639 16.969 13.8456 17.3446 13.8004 17.7493L13.7916 17.9063V22.2675C13.7913 22.6875 13.6039 23.0913 13.268 23.3953C12.9322 23.6992 12.4737 23.88 11.9876 23.9002C11.5015 23.9204 11.025 23.7784 10.6569 23.5037C10.2888 23.2289 10.0573 22.8425 10.0103 22.4245L10.0015 22.2675V17.9063C10.0015 16.6451 10.5643 15.4323 11.573 14.5197C12.5818 13.6072 13.959 13.0649 15.4188 13.0055L15.6866 13H32.1102Z" fill="white"/>
</svg>
